# xmcd
#
# Track frame offsets:
#	150
#	22568
#	42477
#	60690
#	83607
#	101014
#	120507
#	143815
#	165843
#	181183
#	194545
#	211894
#	235566
#
# Disc length: 3476 seconds
#
# Revision: 0
# Processed by: cddbd v1.5PL3 Copyright (c) Steve Scherf et al.
# Submitted via: dBpowerAMP V4.0
#
DISCID=990d920d
DTITLE=Big and Rich - Horse Of A Different Color
DYEAR=2004
DGENRE=Country
TTITLE0=Rollin (The Ballad Of Big and Rich)
TTITLE1=Wild West Show
TTITLE2=Big Time
TTITLE3=Kiss My Ass
TTITLE4=Six Foot Town
TTITLE5=Holy Water
TTITLE6=Saved
TTITLE7=Real World
TTITLE8=Save a Horse (Ride A Cowboy)
TTITLE9=Drinkin Bout You
TTITLE10=Love Train
TTITLE11=Deadwood Mountain
TTITLE12=Live This Life
EXTD=
EXTT0=
EXTT1=
EXTT2=
EXTT3=
EXTT4=
EXTT5=
EXTT6=
EXTT7=
EXTT8=
EXTT9=
EXTT10=
EXTT11=
EXTT12=
PLAYORDER=
